<?xml version="1.0" encoding="UTF-8"?>
<svg width="427px" height="187px" viewBox="0 0 427 187" version="1.1" xmlns="http://www.w3.org/2000/svg" xmlns:xlink="http://www.w3.org/1999/xlink">
    <!-- Generator: Sketch 53.2 (72643) - https://sketchapp.com -->
    <title>Global/Logos/Sentosa - W Tagline</title>
    <desc>Created with Sketch.</desc>
    <defs>
        <path d="M69.6105,57.5462 C53.9995,57.5462 44.9495,45.8172 44.9495,33.9942 C44.9495,22.1682 53.9995,10.4412 69.6105,10.4412 C78.9415,10.4412 92.7965,18.1072 92.7965,35.5652 L92.7965,37.3202 L55.6645,37.3202 C56.2185,44.1552 62.5905,49.0512 69.3335,49.0512 C74.5065,49.0512 78.9415,46.5572 82.2645,42.1212 L90.3945,46.6492 C85.0385,53.3922 77.6465,57.4542 69.6105,57.5462 Z M68.3185,18.9372 C62.2235,18.9372 57.2335,22.7242 55.6645,29.3742 L81.5265,29.3742 C79.4935,22.5382 74.4145,18.9372 68.3185,18.9372 Z M237.5051,30.5765 C245.4451,32.0525 249.3261,35.8405 249.3261,42.4915 C249.3261,49.0515 243.9711,57.5475 230.3901,57.5475 C222.8171,57.5475 216.3501,54.8695 210.2531,49.6965 L216.8131,43.0445 C220.2301,46.7405 225.8631,49.6045 230.8541,49.6045 C236.3961,49.6045 239.7211,46.4655 239.7211,43.9695 C239.7211,41.0135 237.4101,39.4435 233.9011,38.7955 L228.4511,37.7795 C215.8891,35.4725 212.3781,31.4075 212.3781,25.0335 C212.3781,17.4595 218.7541,10.4385 229.9301,10.4385 C236.1171,10.4385 241.5681,12.2855 247.6641,16.6285 L242.2151,23.3715 C237.5051,19.3985 233.3471,18.3845 230.2041,18.3845 C226.0501,18.3845 221.9851,20.4165 221.9851,24.0165 C221.9851,26.6975 224.1101,28.0815 227.8051,28.7295 L237.5051,30.5765 Z M22.6897,48.888 C28.7317,48.888 32.3547,45.465 32.3547,42.748 C32.3547,39.528 29.8357,37.815 26.0137,37.109 L20.0737,36.003 C6.3807,33.487 2.5547,29.055 2.5547,22.109 C2.5547,13.854 9.5007,6.203 21.6827,6.203 C28.4287,6.203 34.3677,8.216 41.0147,12.948 L35.0727,20.296 C29.9397,15.968 25.4087,14.862 21.9847,14.862 C17.4557,14.862 13.0247,17.076 13.0247,21.001 C13.0247,23.921 15.3417,25.432 19.3687,26.136 L29.9397,28.148 C38.5977,29.759 42.8247,33.888 42.8247,41.138 C42.8247,48.284 36.9877,57.546 22.1857,57.546 C13.9317,57.546 6.8827,54.628 0.2407,48.991 L7.3867,41.742 C11.1117,45.77 17.2527,48.888 22.6897,48.888 Z M288.7121,50.8978 L288.5271,50.8978 C285.4791,54.9618 279.9371,57.5458 273.8401,57.5458 C259.1551,57.5458 250.6541,45.5408 250.6541,33.9948 C250.6541,23.0018 259.8011,10.4388 274.3021,10.4388 C280.9531,10.4388 286.0331,13.3038 288.5271,17.0888 L288.7121,17.0888 L288.7121,11.6418 L298.3181,11.6418 L298.3181,56.3448 L288.7121,56.3448 L288.7121,50.8978 Z M275.0421,48.4968 C282.6161,48.4968 289.0811,42.0298 289.0811,33.9948 C289.0811,25.9588 282.6161,19.4928 275.0421,19.4928 C267.2821,19.4928 260.8191,25.9588 260.8191,33.9948 C260.8191,42.0298 267.2821,48.4968 275.0421,48.4968 Z M207.0607,62.2552 C195.0767,56.2642 159.5957,55.9032 126.9197,62.1602 C113.7177,64.6882 91.1657,69.7762 77.8717,71.9912 C60.7297,74.8462 38.3657,75.2742 25.9277,72.0062 C10.9477,68.0732 3.8167,63.1912 0.1527,58.8852 C10.0487,68.6552 40.5447,78.7242 100.3297,61.8782 C110.0917,59.1292 119.3967,56.8792 128.0857,55.1692 L128.0857,31.5002 C128.0857,23.3712 123.8367,20.0472 117.4647,20.0472 C111.2767,20.0472 106.4727,24.0172 106.4727,31.3132 L106.4727,56.3462 L96.8667,56.3462 L96.8667,11.6412 L106.4727,11.6412 L106.4727,17.2762 L106.6557,17.2762 C109.3347,13.1162 114.2307,10.4382 120.3277,10.4382 C129.7497,10.4382 137.6937,18.2902 137.6937,29.3742 L137.6937,53.4642 C140.9147,52.9572 144.0217,52.5432 147.0207,52.2122 C145.3137,49.9912 144.5547,47.0312 144.5547,42.9762 L144.5547,20.5082 L139.9477,20.5082 L139.9477,12.5792 L144.5547,12.5792 L144.5547,3.5932 L154.1607,0.9222 L154.1607,12.5792 L161.8267,12.5792 L161.8267,20.5082 L154.1607,20.5082 L154.1607,41.2202 C154.1607,46.0242 155.2697,48.2412 158.1327,49.9032 L160.6127,51.3212 C162.5587,51.2952 164.4457,51.3142 166.2407,51.3962 C167.1637,51.4382 168.1087,51.4952 169.0697,51.5692 C163.9417,47.0562 161.1607,40.5402 161.1607,33.9932 C161.1607,22.1692 170.2147,10.4382 185.8227,10.4382 C201.4337,10.4382 210.4867,22.1692 210.4867,33.9932 C210.4867,43.5042 204.6247,52.9482 194.2087,56.2812 C199.7537,57.9962 204.4087,60.0452 207.0607,62.2552 Z M185.8227,19.4922 C177.4177,19.4922 171.3237,25.9582 171.3237,33.9932 C171.3237,42.0292 177.4177,48.4962 185.8227,48.4962 C194.2297,48.4962 200.3237,42.0292 200.3237,33.9932 C200.3237,25.9582 194.2297,19.4922 185.8227,19.4922 Z M144.6242,73.5237 L144.6242,71.7737 L153.3442,71.7737 L153.3442,73.5237 L149.9362,73.5237 L149.9362,82.5197 L148.0332,82.5197 L148.0332,73.5237 L144.6242,73.5237 Z M162.6613,76.2405 L162.6613,71.7735 L164.5493,71.7735 L164.5493,82.5195 L162.6613,82.5195 L162.6613,77.9905 L157.5343,77.9905 L157.5343,82.5195 L155.6453,82.5195 L155.6453,71.7735 L157.5343,71.7735 L157.5343,76.2405 L162.6613,76.2405 Z M169.5051,77.9446 L169.5051,80.8316 L175.6611,80.8316 L175.6611,82.5196 L167.6161,82.5196 L167.6161,71.7726 L175.5841,71.7726 L175.5841,73.4626 L169.5051,73.4626 L169.5051,76.2566 L174.8931,76.2566 L174.8931,77.9446 L169.5051,77.9446 Z M187.2629,76.2864 C189.5349,76.8404 190.7169,77.6524 190.7169,79.4494 C190.7169,81.4754 189.1359,82.6734 186.8789,82.6734 C185.2359,82.6734 183.6859,82.1054 182.3959,80.9534 L183.5329,79.6024 C184.5599,80.4924 185.5889,81.0004 186.9249,81.0004 C188.0909,81.0004 188.8279,80.4634 188.8279,79.6344 C188.8279,78.8504 188.3989,78.4354 186.4029,77.9754 C184.1159,77.4234 182.8259,76.7474 182.8259,74.7524 C182.8259,72.8794 184.3609,71.6194 186.4949,71.6194 C188.0609,71.6194 189.3049,72.0964 190.3939,72.9714 L189.3819,74.3984 C188.4139,73.6774 187.4469,73.2934 186.4639,73.2934 C185.3589,73.2934 184.7149,73.8604 184.7149,74.5824 C184.7149,75.4274 185.2059,75.7964 187.2629,76.2864 Z M200.9699,71.7737 L200.9699,73.5237 L197.5619,73.5237 L197.5619,82.5197 L195.6579,82.5197 L195.6579,73.5237 L192.2499,73.5237 L192.2499,71.7737 L200.9699,71.7737 Z M205.3889,71.6966 L207.1389,71.6966 L211.8679,82.5196 L209.8719,82.5196 L208.7829,79.9256 L203.7009,79.9256 L202.5949,82.5196 L200.6599,82.5196 L205.3889,71.6966 Z M204.3909,78.2516 L208.0909,78.2516 L206.2339,73.9536 L204.3909,78.2516 Z M211.4045,73.5237 L211.4045,71.7737 L220.1245,71.7737 L220.1245,73.5237 L216.7165,73.5237 L216.7165,82.5197 L214.8125,82.5197 L214.8125,73.5237 L211.4045,73.5237 Z M224.3127,77.9446 L224.3127,80.8316 L230.4687,80.8316 L230.4687,82.5196 L222.4227,82.5196 L222.4227,71.7726 L230.3917,71.7726 L230.3917,73.4626 L224.3127,73.4626 L224.3127,76.2566 L229.7007,76.2566 L229.7007,77.9446 L224.3127,77.9446 Z M242.9308,71.5892 C246.2318,71.5892 248.5348,74.0912 248.5348,77.1312 C248.5348,80.1712 246.2008,82.7042 242.9008,82.7042 C239.5988,82.7042 237.2958,80.2022 237.2958,77.1622 C237.2958,74.1222 239.6298,71.5892 242.9308,71.5892 Z M242.9308,80.9692 C245.0648,80.9692 246.5538,79.2652 246.5538,77.1622 C246.5538,75.0592 245.0348,73.3242 242.9008,73.3242 C240.7658,73.3242 239.2778,75.0272 239.2778,77.1312 C239.2778,79.2342 240.7958,80.9692 242.9308,80.9692 Z M250.9709,82.5198 L250.9709,71.7738 L258.9689,71.7738 L258.9689,73.4928 L252.8609,73.4928 L252.8609,76.4248 L258.2799,76.4248 L258.2799,78.1448 L252.8609,78.1448 L252.8609,82.5198 L250.9709,82.5198 Z M265.1369,82.5198 L265.1369,71.7738 L273.7339,71.7738 L273.7339,74.3828 L268.1159,74.3828 L268.1159,76.2098 L273.1969,76.2098 L273.1969,78.6818 L268.1159,78.6818 L268.1159,82.5198 L265.1369,82.5198 Z M283.0812,77.8226 L283.0812,71.7726 L286.1052,71.7726 L286.1052,77.7296 C286.1052,81.1996 284.1252,82.7186 281.0702,82.7186 C278.0152,82.7186 276.0962,81.1696 276.0962,77.8066 L276.0962,71.7726 L279.1202,71.7726 L279.1202,77.7456 C279.1202,79.2966 279.9032,80.0336 281.1012,80.0336 C282.2982,80.0336 283.0812,79.3266 283.0812,77.8226 Z M295.4514,71.7737 L298.3994,71.7737 L298.3994,82.5197 L295.7904,82.5197 L291.1984,76.6247 L291.1984,82.5197 L288.2514,82.5197 L288.2514,71.7737 L291.0304,71.7737 L295.4514,77.4537 L295.4514,71.7737 Z M308.6906,12.4632 L306.0316,12.4632 L306.0316,11.6412 L312.2406,11.6412 L312.2406,12.4632 L309.5806,12.4632 L309.5806,19.5282 L308.6906,19.5282 L308.6906,12.4632 Z M314.4816,11.6414 L315.3816,11.6414 L318.2536,15.9444 L321.1276,11.6414 L322.0296,11.6414 L322.0296,19.5284 L321.1386,19.5284 L321.1386,13.1404 L318.2666,17.3644 L318.2206,17.3644 L315.3476,13.1514 L315.3476,19.5284 L314.4816,19.5284 L314.4816,11.6414 Z" id="path-1"></path>
    </defs>
    <g id="Global/Logos/Sentosa---W-Tagline" stroke="none" stroke-width="1" fill="none" fill-rule="evenodd">
        <g id="Group-77">
            <g transform="translate(52.000000, 51.520000)">
                <g id="Global/Swatches/Sentosa/Greyscale/01-Sentosa-White-(#FFFFFF)">
                    <mask id="mask-2" fill="white">
                        <use xlink:href="#path-1"></use>
                    </mask>
                    <use id="Mask" fill="#F6A91B" xlink:href="#path-1"></use>
                    <g id="Global/Swatches/Sentosa/Primary/02-Sentosa-Orange-(#F8A909)" mask="url(#mask-2)" fill="#F8A909">
                        <g transform="translate(-52.000000, -51.520000)">
                            <rect x="0" y="0" width="427" height="187"></rect>
                        </g>
                    </g>
                </g>
            </g>
        </g>
    </g>
</svg>